                        =!DK GROUP HD BLURAY RELEAESEES!=

===================================================================================

          Piranha(2010)Unrated Bluray Rip In[Hindi-Eng]6CH.AC3 By !!!dip

===================================================================================

Storyline:

Lake Victoria's annual Spring party by 50,000 young revelers is about to turn into a feeding frenzy with prehistoric hunger-pains. With knee-trembler's above the waves and tremors below, released from their dormant sleep, thousands upon thousands of flesh-eating nippers are released into the lake with whetted appetites and razor-sharp teeth. With a motley crew of strangers thrown together to defend these shores, it is now up to them to prevent the largest eat-out in human, and piranha, history. Written by Cinema_Fan 

Cast:

Richard Dreyfuss..................Matt Boyd
Ving Rhames.......................Deputy Fallon
Elisabeth Shue....................Sheriff Julie Forester
Christopher Lloyd.................Mr. Goodman
Eli Roth..........................Wet T-Shirt Host
Jerry O'Connell...................Derrick Jones
Steven R. McQueen.................Jake Forester
Jessica Szohr.....................Kelly
Kelly Brook.......................Danni
Riley Steele......................Crystal
Adam Scott........................Novak Radzinsky
Ricardo Chavira...................Sam
Dina Meyer........................Paula Montellano
Paul Scheer.......................Andrew 'Drew' Cunningham
Brooklynn Proulx..................Laura Forester  


 
Directors :Alexandre Aja
Writers :Pete Goldfinger, Josh Stolberg
Stars:Elisabeth Shue, Jerry O'Connell and Richard Dreyfuss
Format : Color, Dubbed,Widescreen
Language :[Hindi-Eng]6CH.AC3
Release Date :3 September 2010 (India) 
Run Time : 1h:24m:48s
Color :Color
SUBTITLE:NO


Video Specifications:

Release Title/Year/Language...:Piranha(2010)Unrated Bluray Rip In [Hindi-Eng]6CH.AC3 By !!!dip
Genre.........................:Adult | Horror    
Source........................:BLURAY

ID                               : 1
Format                           : AVC
Format/Info                      : Advanced Video Codec
Format profile                   : High@L4.1
Format settings, CABAC           : Yes
Format settings, ReFrames        : 8 frames
Muxing mode                      : Header stripping
Codec ID                         : V_MPEG4/ISO/AVC
Duration                         : 1h 24mn
Nominal bit rate                 : 2 044 Kbps
Width                            : 1 280 pixels
Height                           : 536 pixels
Display aspect ratio             : 2.35:1
Frame rate                       : 25.000 fps
Original frame rate              : 23.976 fps
Color space                      : YUV
Chroma subsampling               : 4:2:0
Bit depth                        : 8 bits
Scan type                        : Progressive
Bits/(Pixel*Frame)               : 0.119
Team                             : DK Group HD Bluray Releases


Audio Specifications:


Audio #1
ID                               : 2
Format                           : AAC
Format/Info                      : Advanced Audio Codec
Format profile                   : LC
Codec ID                         : A_AAC
Duration                         : 1h 24mn
Channel(s)                       : 6 channels
Channel positions                : Front: L C R, Side: L R, LFE
Sampling rate                    : 48.0 KHz
Compression mode                 : Lossy
Title                            : !!!dip
Language                         : English

Audio #2
ID                               : 3
Format                           : AC-3
Format/Info                      : Audio Coding 3
Mode extension                   : CM (complete main)
Muxing mode                      : Header stripping
Codec ID                         : A_AC3
Duration                         : 1h 24mn
Bit rate mode                    : Constant
Bit rate                         : 448 Kbps
Channel(s)                       : 6 channels
Channel positions                : Front: L C R, Side: L R, LFE
Sampling rate                    : 48.0 KHz
Bit depth                        : 16 bits
Compression mode                 : Lossy
Delay relative to video          : 12ms
Stream size                      : 272 MiB (15%)
Title                            : !!!dip
Language                         : Hindi

Audio #3
ID                               : 4
Format                           : AC-3
Format/Info                      : Audio Coding 3
Mode extension                   : CM (complete main)
Muxing mode                      : Header stripping
Codec ID                         : A_AC3
Duration                         : 1h 24mn
Bit rate mode                    : Constant
Bit rate                         : 192 Kbps
Channel(s)                       : 2 channels
Channel positions                : Front: L R
Sampling rate                    : 48.0 KHz
Bit depth                        : 16 bits
Compression mode                 : Lossy
Delay relative to video          : 12ms
Stream size                      : 116 MiB (6%)
Title                            : !!!dip
Language                         : Hindi

SAMPLE IMAGE:
 
http://www.pix2links.com/images/79425013922553397763.jpg
 
http://www.pix2links.com/images/11509941118517722910.jpg
 
http://www.pix2links.com/images/20182192405480881451.jpg
 
http://www.pix2links.com/images/25291689202450454923.jpg
 
http://www.pix2links.com/images/70438017732528940927.jpg
 
http://www.pix2links.com/images/53761694589177904865.jpg


VIDEO SAMPLE INCLUDED:

